<svg width="28" height="22" viewBox="0 0 28 22" fill="none" xmlns="http://www.w3.org/2000/svg">
<g clip-path="url(#clip0_3383_17660)">
<path d="M5.07485 21.9517V20.4917C5.07485 19.9332 4.73858 19.5674 4.16132 19.5674C3.87269 19.5674 3.55884 19.6638 3.34307 19.9814C3.17493 19.7149 2.93394 19.5674 2.57245 19.5674C2.33146 19.5674 2.09046 19.6411 1.89991 19.9076V19.6156H1.39551V21.9517H1.89991V20.6618C1.89991 20.2478 2.11568 20.0522 2.45195 20.0522C2.78822 20.0522 2.95636 20.2705 2.95636 20.6618V21.9517H3.46076V20.6618C3.46076 20.2478 3.70175 20.0522 4.0128 20.0522C4.34907 20.0522 4.51721 20.2705 4.51721 20.6618V21.9517H5.07485ZM12.5568 19.6156H11.7386V18.9097H11.2342V19.6156H10.7774V20.0777H11.2342V21.1494C11.2342 21.6852 11.45 21.9999 12.0272 21.9999C12.243 21.9999 12.484 21.9262 12.6521 21.8298L12.5064 21.3904C12.3607 21.4868 12.1925 21.5123 12.0721 21.5123C11.8311 21.5123 11.7358 21.3649 11.7358 21.1239V20.0777H12.554V19.6156H12.5568ZM16.8387 19.5646C16.55 19.5646 16.3567 19.712 16.2362 19.9048V19.6128H15.7318V21.9489H16.2362V20.6334C16.2362 20.245 16.4043 20.0239 16.7182 20.0239C16.8134 20.0239 16.9339 20.0494 17.032 20.0721L17.1777 19.5844C17.0769 19.5646 16.9339 19.5646 16.8387 19.5646ZM10.3683 19.8084C10.1273 19.6383 9.79103 19.5646 9.42954 19.5646C8.85227 19.5646 8.46837 19.8566 8.46837 20.3187C8.46837 20.7071 8.757 20.9283 9.2614 20.9991L9.50239 21.0247C9.76581 21.0728 9.91152 21.1466 9.91152 21.2685C9.91152 21.4386 9.71817 21.5605 9.3819 21.5605C9.04563 21.5605 8.77942 21.4386 8.61128 21.3167L8.37029 21.7051C8.6337 21.9007 8.99519 21.9971 9.35668 21.9971C10.0292 21.9971 10.4159 21.6796 10.4159 21.243C10.4159 20.829 10.1021 20.6107 9.62289 20.537L9.3819 20.5115C9.16612 20.486 8.99799 20.4378 8.99799 20.2932C8.99799 20.1231 9.16613 20.0267 9.43234 20.0267C9.72097 20.0267 10.0096 20.1486 10.1553 20.2223L10.3683 19.8084ZM23.7882 19.5646C23.4996 19.5646 23.3062 19.712 23.1857 19.9048V19.6128H22.6813V21.9489H23.1857V20.6334C23.1857 20.245 23.3539 20.0239 23.6677 20.0239C23.763 20.0239 23.8835 20.0494 23.9816 20.0721L24.1273 19.5901C24.0292 19.5646 23.8863 19.5646 23.7882 19.5646ZM17.3431 20.7837C17.3431 21.4896 17.8251 21.9999 18.5704 21.9999C18.9067 21.9999 19.1477 21.9262 19.3887 21.7334L19.1477 21.3195C18.9544 21.4669 18.7638 21.5378 18.5452 21.5378C18.1361 21.5378 17.8475 21.2458 17.8475 20.7837C17.8475 20.3442 18.1361 20.0522 18.5452 20.0296C18.761 20.0296 18.9544 20.1033 19.1477 20.2479L19.3887 19.8339C19.1477 19.6383 18.9067 19.5674 18.5704 19.5674C17.8251 19.5646 17.3431 20.0777 17.3431 20.7837ZM22.0088 20.7837V19.6156H21.5044V19.9076C21.3363 19.6893 21.0953 19.5674 20.7814 19.5674C20.1313 19.5674 19.6269 20.0777 19.6269 20.7837C19.6269 21.4896 20.1313 21.9999 20.7814 21.9999C21.1177 21.9999 21.3587 21.878 21.5044 21.6597V21.9517H22.0088V20.7837ZM20.1565 20.7837C20.1565 20.3698 20.4199 20.0296 20.8543 20.0296C21.2634 20.0296 21.552 20.3471 21.552 20.7837C21.552 21.1976 21.2634 21.5378 20.8543 21.5378C20.4227 21.5123 20.1565 21.1948 20.1565 20.7837ZM14.1205 19.5646C13.448 19.5646 12.966 20.0522 12.966 20.7808C12.966 21.5123 13.448 21.9971 14.1457 21.9971C14.482 21.9971 14.8182 21.9007 15.0845 21.6796L14.8435 21.3138C14.6501 21.4613 14.4091 21.5576 14.1709 21.5576C13.8571 21.5576 13.546 21.4102 13.4732 20.9991H15.1797C15.1797 20.9254 15.1797 20.8772 15.1797 20.8035C15.2022 20.0522 14.7678 19.5646 14.1205 19.5646ZM14.1205 20.004C14.4343 20.004 14.6501 20.1997 14.6978 20.5625H13.4956C13.5432 20.2478 13.759 20.004 14.1205 20.004ZM26.6521 20.7837V18.6914H26.1477V19.9076C25.9796 19.6893 25.7386 19.5674 25.4247 19.5674C24.7746 19.5674 24.2702 20.0777 24.2702 20.7837C24.2702 21.4896 24.7746 21.9999 25.4247 21.9999C25.761 21.9999 26.002 21.878 26.1477 21.6597V21.9517H26.6521V20.7837ZM24.7998 20.7837C24.7998 20.3698 25.0632 20.0296 25.4976 20.0296C25.9067 20.0296 26.1953 20.3471 26.1953 20.7837C26.1953 21.1976 25.9067 21.5378 25.4976 21.5378C25.0632 21.5123 24.7998 21.1948 24.7998 20.7837ZM7.91352 20.7837V19.6156H7.40912V19.9076C7.24098 19.6893 6.99999 19.5674 6.68614 19.5674C6.03602 19.5674 5.53162 20.0777 5.53162 20.7837C5.53162 21.4896 6.03602 21.9999 6.68614 21.9999C7.02241 21.9999 7.2634 21.878 7.40912 21.6597V21.9517H7.91352V20.7837ZM6.03882 20.7837C6.03882 20.3698 6.30223 20.0296 6.73658 20.0296C7.14571 20.0296 7.43434 20.3471 7.43434 20.7837C7.43434 21.1976 7.14571 21.5378 6.73658 21.5378C6.30223 21.5123 6.03882 21.1948 6.03882 20.7837Z" fill="black"/>
<path d="M17.7775 1.875H10.2002V15.6477H17.7775V1.875Z" fill="#FF5A00"/>
<path d="M10.7046 8.76031C10.7046 5.96211 12.0048 3.47861 14 1.87397C12.5316 0.705928 10.6793 0 8.65893 0C3.8727 0 0 3.91804 0 8.76031C0 13.6026 3.8727 17.5206 8.65893 17.5206C10.6793 17.5206 12.5316 16.8147 14 15.6467C12.002 14.0647 10.7046 11.5585 10.7046 8.76031Z" fill="#EB001B"/>
<path d="M28 8.76031C28 13.6026 24.1273 17.5206 19.3411 17.5206C17.3207 17.5206 15.4684 16.8147 14 15.6467C16.0204 14.0392 17.2954 11.5585 17.2954 8.76031C17.2954 5.96211 15.9952 3.47861 14 1.87397C15.4656 0.705928 17.3179 0 19.3383 0C24.1273 0 28 3.94356 28 8.76031Z" fill="#F79E1B"/>
</g>
<defs>
<clipPath id="clip0_3383_17660">
<rect width="28" height="22" fill="white"/>
</clipPath>
</defs>
</svg>
