<svg  width="58" height="20"  viewBox="0 0 58 20" fill="none" xmlns="http://www.w3.org/2000/svg">
  <g clip-path="url(#clip0_3286_46296)">
    <mask id="mask0_3286_46296" style="mask-type:luminance" maskUnits="userSpaceOnUse" x="0" y="0" width="58" height="20">
      <path d="M58 0H0v20h58V0Z" fill="#fff"/>
    </mask>
    <g mask="url(#mask0_3286_46296)">
      <path d="M0 16.628c.023.629.251 1.233.652 1.723.4.49.95.838 1.569.993.829.202 5.103.662 7.631.662 2.529 0 6.805-.46 7.634-.662a2.95 2.95 0 0 0 1.57-.993c.4-.49.628-1.094.65-1.723V3.368a2.886 2.886 0 0 0-.651-1.723c-.4-.49-.951-.838-1.569-.993-.829-.202-5.103-.66-7.634-.66-2.53 0-6.802.458-7.631.66a2.953 2.953 0 0 0-1.57.993C.252 2.135.024 2.74 0 3.368v13.26Z" fill="#96154A"/>
      <path d="M11.37 9.658c-1.693-.297-2.821.597-2.821 2.049v3.32l-2.661 1.682v-5.002c0-2.903 2.036-4.923 5.482-4.514v2.465ZM10.472 4.64c0 .298-.09.59-.258.837a1.523 1.523 0 0 1-.685.556 1.546 1.546 0 0 1-1.665-.327 1.489 1.489 0 0 1-.331-1.643c.116-.275.312-.51.563-.676a1.542 1.542 0 0 1 1.928.187c.287.283.448.666.448 1.066Z" fill="#fff"/>
      <path d="M12.006 9.458a.426.426 0 0 0 .325.397c.369.058.741.09 1.114.097a8.104 8.104 0 0 0 1.117-.097.436.436 0 0 0 .325-.397V7.52a.423.423 0 0 0-.325-.396 8.11 8.11 0 0 0-1.117-.097 8.11 8.11 0 0 0-1.114.097.433.433 0 0 0-.325.396v1.938Z" fill="#F6ABB6"/>
      <path d="M40.342 5.331c.36.34.54.849.54 1.528v2.668h-1.099v-2.53a1.3 1.3 0 0 0-.297-.92 1.085 1.085 0 0 0-.83-.308 1.285 1.285 0 0 0-.962.361 1.43 1.43 0 0 0-.355 1.043v2.354H36.24V4.87h1.046v.6c.185-.215.421-.382.688-.486.298-.116.615-.174.936-.17a1.994 1.994 0 0 1 1.43.51M33.262 9.63c-.49.007-.97-.13-1.38-.392a2.442 2.442 0 0 1-.925-1.085 2.404 2.404 0 0 1 .51-2.665c.343-.344.783-.58 1.262-.677.48-.097.977-.05 1.43.132.453.183.84.495 1.113.896s.419.873.419 1.356a2.4 2.4 0 0 1-.704 1.713 2.465 2.465 0 0 1-1.725.721Zm.033-3.767a1.39 1.39 0 0 0-.77.22 1.362 1.362 0 0 0-.514.606 1.342 1.342 0 0 0 .288 1.486 1.393 1.393 0 0 0 1.502.302c.252-.102.467-.276.62-.5a1.345 1.345 0 0 0-.164-1.71c-.255-.255-.6-.4-.962-.404ZM43.992 16.607V11.95H42.94v.441a2.451 2.451 0 0 0-2.56-.256 2.421 2.421 0 0 0-.992.885 2.378 2.378 0 0 0 0 2.539c.24.38.584.688.992.885a2.46 2.46 0 0 0 2.56-.256v.418h1.052Zm-2.537-.886c-.286 0-.567-.084-.805-.241a1.434 1.434 0 0 1-.534-.643 1.412 1.412 0 0 1 .314-1.559 1.467 1.467 0 0 1 1.58-.31c.265.108.492.292.651.527a1.417 1.417 0 0 1-.18 1.806c-.273.268-.641.42-1.026.42ZM52.921 4.867v.467a2.45 2.45 0 0 0-2.56-.256 2.42 2.42 0 0 0-.992.885 2.377 2.377 0 0 0 0 2.538c.24.381.584.688.993.886a2.46 2.46 0 0 0 2.56-.256v.393h1.052V4.867H52.92Zm-1.484 3.795c-.287 0-.567-.083-.806-.24a1.436 1.436 0 0 1-.535-.642 1.412 1.412 0 0 1 .313-1.56 1.468 1.468 0 0 1 1.58-.31c.266.107.492.29.651.526a1.417 1.417 0 0 1-.18 1.806c-.271.268-.64.42-1.023.42ZM33.644 15.707a1.55 1.55 0 0 1-.85-.06 1.53 1.53 0 0 1-.687-.5l.055-.017 3.6-1.188a2.82 2.82 0 0 0-.6-1.283 2.168 2.168 0 0 0-.995-.68 2.83 2.83 0 0 0-2.48.396 2.223 2.223 0 0 0-.745.971c-.157.4-.202.836-.13 1.26.033.227.098.449.194.658.437.998 1.556 1.572 2.716 1.397l.113-.019c.413-.074.8-.251 1.123-.516.322-.265.57-.607.72-.994l-.888-.34a1.516 1.516 0 0 1-.456.598c-.2.158-.437.264-.69.309v.008ZM31.883 14.4a1.44 1.44 0 0 1 .218-1.101 1.332 1.332 0 0 1 .936-.537c.305-.055.619-.01.895.13.256.132.459.347.572.61l-2.62.898h-.001ZM36.24 14.838c.004.354.11.7.304.997.195.298.47.535.796.685a1.93 1.93 0 0 0 2.013-.25l-.688-.838a.819.819 0 0 1-.515.18.801.801 0 0 1-.565-.223.779.779 0 0 1-.239-.551v-4.615h-1.099l-.007 4.615ZM57.303 8.322a.81.81 0 0 1-.516.18.802.802 0 0 1-.564-.223.784.784 0 0 1-.239-.551V3.25l-1.1.696v3.782c.005.354.11.7.305.997.195.298.47.535.796.685a1.929 1.929 0 0 0 2.013-.25l-.695-.838ZM29.13 9.516h1.155V3.68a.544.544 0 0 0-.387-.519.562.562 0 0 0-.62.202l-1.72 2.376-1.72-2.376a.554.554 0 0 0-.62-.203.553.553 0 0 0-.384.522v5.837h1.154v-3.86l.072.087c.444.548 1.12 1.375 1.158 1.41a.509.509 0 0 0 .344.138.52.52 0 0 0 .344-.138 118.2 118.2 0 0 0 1.158-1.41l.07-.087-.003 3.858ZM48.455 5.176h-1.099v4.35h1.1v-4.35ZM48.599 3.831a.673.673 0 0 0-.425-.627.697.697 0 0 0-.75.147.675.675 0 0 0 .105 1.045.694.694 0 0 0 .868-.085.675.675 0 0 0 .202-.48Z" fill="#96154A"/>
      <path d="M48.6 11.957v2.273c0 .769-.556 1.358-1.294 1.358-.737 0-1.293-.58-1.293-1.358v-2.268h-1.1v2.268a2.348 2.348 0 0 0 .679 1.713 2.408 2.408 0 0 0 1.714.72c.465.002.917-.141 1.294-.408v.59c0 1.189-.965 2.105-2.236 2.105-1.524 0-2.252-.848-2.365-1.633h-1.06c.136 1.57 1.538 2.686 3.418 2.686a3.465 3.465 0 0 0 2.351-.881 3.037 3.037 0 0 0 .993-2.276v-4.884l-1.101-.005ZM45.348 3.219v2.116a2.461 2.461 0 0 0-2.56-.256 2.422 2.422 0 0 0-.992.886 2.378 2.378 0 0 0 0 2.538c.24.381.584.688.992.885a2.461 2.461 0 0 0 2.56-.256v.394h1.094V3.22h-1.094Zm-1.485 5.445c-.286 0-.567-.084-.805-.241a1.437 1.437 0 0 1-.534-.642 1.415 1.415 0 0 1 .314-1.56 1.457 1.457 0 0 1 1.58-.31c.265.108.492.292.651.527a1.42 1.42 0 0 1-.18 1.806c-.273.269-.641.42-1.026.42ZM29.43 16.606h1.435l-1.617-2.259.036-.022c.3-.168.555-.405.742-.691a2.09 2.09 0 0 0 .333-.952 2.273 2.273 0 0 0-.576-1.726 2.215 2.215 0 0 0-1.648-.733H26.12c-.348.004-.68.145-.923.39a1.288 1.288 0 0 0-.374.92v5.073h1.156v-1.945h2.064l1.388 1.945Zm-3.412-3.09h-.04v-1.78c0-.097.038-.191.107-.261.07-.07.164-.11.263-.112h1.748a1.1 1.1 0 0 1 .775.283 1.07 1.07 0 0 1 .08 1.508c-.189.211-.455.341-.74.361h-2.193Z" fill="#96154A"/>
    </g>
  </g>
  <defs>
    <clipPath id="clip0_3286_46296">
      <path fill="#fff" d="M0 0h58v20H0z"/>
    </clipPath>
  </defs>
</svg>
