<svg width="39" height="12" viewBox="0 0 39 12" fill="none" xmlns="http://www.w3.org/2000/svg">
<g clip-path="url(#clip0_3383_17653)">
<path d="M16.8995 11.8273H13.7402L15.7163 0.210938H18.8754L16.8995 11.8273Z" fill="#00579F"/>
<path d="M28.3529 0.494553C27.7298 0.259513 26.7414 0 25.5193 0C22.3994 0 20.2024 1.58171 20.189 3.84309C20.163 5.51153 21.7619 6.43822 22.9578 6.99453C24.1801 7.56299 24.5956 7.93403 24.5956 8.44074C24.5831 9.21895 23.6079 9.57767 22.6983 9.57767C21.437 9.57767 20.7611 9.39272 19.7341 8.95976L19.3181 8.77416L18.876 11.3818C19.6169 11.7027 20.9821 11.9875 22.3994 12C25.7144 12 27.8725 10.4428 27.8981 8.03291C27.9107 6.71054 27.0664 5.69729 25.2462 4.86931C24.1412 4.33781 23.4645 3.97942 23.4645 3.43559C23.4775 2.9412 24.0369 2.43482 25.2842 2.43482C26.3112 2.41002 27.0659 2.64473 27.6375 2.87961L27.9233 3.00296L28.3529 0.494553Z" fill="#00579F"/>
<path d="M32.552 7.71201C32.8122 7.04467 33.8133 4.46186 33.8133 4.46186C33.8002 4.48666 34.073 3.78219 34.229 3.34973L34.4498 4.35066C34.4498 4.35066 35.048 7.13122 35.1779 7.71201C34.6842 7.71201 33.176 7.71201 32.552 7.71201ZM36.4517 0.210938H34.008C33.2544 0.210938 32.6819 0.420847 32.3568 1.17475L27.6641 11.8271H30.979C30.979 11.8271 31.5247 10.3934 31.642 10.0846C32.0057 10.0846 35.2305 10.0846 35.6983 10.0846C35.789 10.4924 36.0753 11.8271 36.0753 11.8271H39.0004L36.4517 0.210938Z" fill="#00579F"/>
<path d="M11.1017 0.210938L8.00776 8.13215L7.66966 6.52564C7.09765 4.67193 5.30371 2.65791 3.30176 1.65649L6.13572 11.8149H9.47657L14.4424 0.210938H11.1017Z" fill="#00579F"/>
<path d="M5.13496 0.210938H0.0520007L0 0.445649C3.96503 1.40962 6.59099 3.73325 7.66988 6.52613L6.5649 1.1874C6.38299 0.445484 5.82393 0.235411 5.13496 0.210938Z" fill="#FAA61A"/>
</g>
<defs>
<clipPath id="clip0_3383_17653">
<rect width="39" height="12" fill="white"/>
</clipPath>
</defs>
</svg>
