<svg xmlns="http://www.w3.org/2000/svg" fill="none" viewBox="0.86 0.43 28.86 26.71">   <path d="M11.992 13.346c3.553 0 6.458-2.905 6.458-6.459 0-3.553-2.905-6.458-6.458-6.458-3.554 0-6.459 2.905-6.459 6.458 0 3.554 2.905 6.459 6.459 6.459ZM23.076 18.507a6.021 6.021 0 0 0-.649-1.185c-1.297-1.918-3.3-3.187-5.556-3.497-.282-.028-.592.028-.818.197a6.795 6.795 0 0 1-4.061 1.326 6.794 6.794 0 0 1-4.061-1.326 1.058 1.058 0 0 0-.818-.197 7.97 7.97 0 0 0-5.556 3.497c-.254.367-.48.79-.649 1.185-.085.169-.056.366.028.536.226.395.508.79.762 1.128.394.536.818 1.015 1.297 1.466.395.395.846.762 1.297 1.128a12.778 12.778 0 0 0 7.672 2.539c2.764 0 5.443-.875 7.67-2.538.452-.339.903-.734 1.298-1.129.452-.45.903-.93 1.298-1.466.282-.367.535-.733.761-1.128.141-.17.17-.367.085-.536Z" fill="currentColor"></path>   <circle cx="22.648" cy="20.071" fill="#FF7036" r="7.071"></circle>   <path d="m26.347 19.19-4.145 4.557a.737.737 0 0 1-1.112 0l-2.14-2.352a.926.926 0 0 1 0-1.223.737.737 0 0 1 1.112 0l1.584 1.741 3.589-3.945a.737.737 0 0 1 1.112 0 .927.927 0 0 1 0 1.223Z" fill="currentColor"></path> </svg>
