<svg xmlns="http://www.w3.org/2000/svg" viewBox="0 0 23 26" fill="none">
  <path d="M11.165 13.38c3.563 0 6.476-2.912 6.476-6.475 0-3.564-2.913-6.476-6.476-6.476S4.689 3.34 4.689 6.905c0 3.563 2.913 6.475 6.476 6.475ZM22.278 18.555a6.037 6.037 0 0 0-.65-1.187c-1.3-1.923-3.309-3.196-5.57-3.507-.284-.028-.595.028-.821.198a6.813 6.813 0 0 1-4.072 1.33 6.812 6.812 0 0 1-4.072-1.33 1.061 1.061 0 0 0-.82-.198 7.991 7.991 0 0 0-5.571 3.507c-.255.367-.481.792-.65 1.188-.086.17-.057.367.027.537.227.396.51.792.764 1.131.396.537.82 1.018 1.3 1.47.397.396.85.764 1.302 1.132a12.812 12.812 0 0 0 7.692 2.545c2.77 0 5.457-.877 7.691-2.545.453-.34.905-.736 1.301-1.131.453-.453.905-.934 1.301-1.471a9.92 9.92 0 0 0 .764-1.131c.14-.17.17-.368.084-.538Z" fill="currentColor"/>
</svg>
