<svg xmlns="http://www.w3.org/2000/svg" viewBox="0 0 41 44" fill="none">
  <path fill-rule="evenodd" clip-rule="evenodd" d="M38.227 28.376a7.442 7.442 0 0 1-2.643-5.695v-3.098c0-3.91-2.905-7.146-6.667-7.688v-1.2a1.11 1.11 0 1 0-2.223 0v1.2c-3.763.542-6.666 3.779-6.666 7.689v3.097a7.451 7.451 0 0 1-2.653 5.704 1.94 1.94 0 0 0-.68 1.476c0 1.073.872 1.945 1.944 1.945h18.333a1.946 1.946 0 0 0 1.945-1.945 1.95 1.95 0 0 0-.69-1.485Zm-22.643-7.813a1.111 1.111 0 0 0 2.222 0c0-3.116 1.213-6.046 3.416-8.25a1.11 1.11 0 1 0-1.571-1.571 13.798 13.798 0 0 0-4.067 9.822Zm22.222 0a1.111 1.111 0 0 0 2.222 0c0-3.71-1.444-7.197-4.068-9.82a1.11 1.11 0 1 0-1.57 1.57 11.593 11.593 0 0 1 3.416 8.25Zm-5.918 12.354a4.173 4.173 0 0 1-4.082 3.333 4.173 4.173 0 0 1-4.082-3.333h8.164Z" fill="currentColor"/>
</svg>
