<svg xmlns="http://www.w3.org/2000/svg" fill="none" viewBox="13 13 17 17">
  <path fill-rule="evenodd" clip-rule="evenodd" d="M26.979 14.328h1.029c1.098 0 1.992.894 1.992 1.992v13.016a.664.664 0 0 1-.664.664H13.664a.664.664 0 0 1-.664-.664V16.32c0-1.098.894-1.992 1.992-1.992h1.03v-.664a.664.664 0 1 1 1.328 0v.664h3.486v-.664a.664.664 0 1 1 1.328 0v.664h3.486v-.664a.664.664 0 1 1 1.329 0v.664Zm-10.957 1.328h-1.03a.665.665 0 0 0-.664.664v1.992h14.344V16.32a.665.665 0 0 0-.664-.664h-1.03v.664a.664.664 0 1 1-1.328 0v-.664h-3.486v.664a.664.664 0 1 1-1.328 0v-.664H17.35v.664a.664.664 0 1 1-1.329 0v-.664Zm-1.694 3.985v9.03h14.344v-9.03H14.328Zm2.524 3.851h1.328a.664.664 0 1 1 0 1.328h-1.328a.664.664 0 1 1 0-1.328Zm1.328 2.656h-1.328a.664.664 0 1 0 0 1.329h1.328a.664.664 0 1 0 0-1.329Zm1.992.665c0-.367.297-.665.664-.665h1.328a.664.664 0 1 1 0 1.329h-1.328a.664.664 0 0 1-.664-.665Zm1.992-3.32h-1.328a.664.664 0 1 0 0 1.327h1.328a.664.664 0 1 0 0-1.328Zm-1.328-2.657h1.328a.664.664 0 1 1 0 1.328h-1.328a.664.664 0 1 1 0-1.328Zm5.312 0H24.82a.664.664 0 1 0 0 1.328h1.328a.664.664 0 1 0 0-1.328Zm-1.328 2.656h1.328a.664.664 0 1 1 0 1.328H24.82a.664.664 0 1 1 0-1.328Z" fill="currentColor"/>
</svg>
