<svg xmlns="http://www.w3.org/2000/svg" viewBox="0 0 44 44" fill="none">
  <path d="M18.605 40.613c.203.168.42.336.637.49.07.049.112.077.12.084a.345.345 0 0 0 .54-.346.356.356 0 0 0-.142-.228l-.147-.105c-.112-.084-.28-.203-.49-.371a13.388 13.388 0 0 1-3.241-3.759c-3.024-5.229-1.813-12.082 2.884-16.303a25.902 25.902 0 0 1 6.244-4.046c-10.339 7.903-8.561 14.868-8.477 15.176a.347.347 0 0 0 .364.259c6.328-.525 11.011-2.898 13.923-7.056 5.859-8.365 2.443-21.273 2.408-21.399a.342.342 0 0 0-.329-.259h-.007a.353.353 0 0 0-.336.245c-.014.056-1.757 5.509-9.45 7.735a22.3 22.3 0 0 0-10.717 6.664 9.18 9.18 0 0 0-1.456 2.31c-4.466 10.22 4.872 18.676 7.672 20.909Z" fill="currentColor"/>
</svg>
