<svg xmlns="http://www.w3.org/2000/svg" viewBox="0 0 44 44" fill="none">
  <path d="M30.532 15H13.468c-.81 0-1.468.681-1.468 1.519V27.48c0 .838.658 1.519 1.468 1.519h17.064c.81 0 1.468-.681 1.468-1.519V16.52C32 15.68 31.342 15 30.532 15Zm-12.38 9.116h1.983c.238 0 .43.2.43.445a.438.438 0 0 1-.43.446h-1.983c-.238 0-.43-.2-.43-.446s.192-.445.43-.445Zm-4.29-4.47c0-.247.193-.446.431-.446h2.58c.238 0 .43.2.43.446v1.93a.438.438 0 0 1-.43.445h-2.58c-.238 0-.43-.2-.43-.445v-1.93Zm.431 4.47h1.983c.238 0 .43.2.43.445a.438.438 0 0 1-.43.446h-1.983c-.238 0-.43-.2-.43-.446s.192-.445.43-.445Zm7.078 2.873h-7.078c-.238 0-.43-.2-.43-.446s.192-.446.43-.446h7.078c.238 0 .43.2.43.446a.438.438 0 0 1-.43.446Zm2.623-1.982H22.01c-.238 0-.43-.2-.43-.446s.192-.445.43-.445h1.983c.238 0 .43.2.43.445a.438.438 0 0 1-.43.446Zm3.859 0H25.87c-.238 0-.43-.2-.43-.446s.192-.445.43-.445h1.983c.238 0 .43.2.43.445a.438.438 0 0 1-.43.446Zm1.854-6.51H25.03c-.238 0-.43-.2-.43-.446s.192-.445.43-.445h4.676c.238 0 .43.2.43.445a.438.438 0 0 1-.43.446Z" fill="currentColor"/>
</svg>
