<svg xmlns="http://www.w3.org/2000/svg" viewBox="0 0 22 26" fill="none">
  <path d="M20.571 6.891a.913.913 0 0 0-.307-.622 1.008 1.008 0 0 0-.672-.253h-2.94c0-1.482-.618-2.903-1.72-3.95A6.036 6.036 0 0 0 10.774.428 6.036 6.036 0 0 0 6.62 2.065c-1.102 1.048-1.721 2.47-1.721 3.951H1.959c-.25 0-.49.09-.673.253a.913.913 0 0 0-.306.622L0 22.201c0 .894.374 1.751 1.039 2.383a3.642 3.642 0 0 0 2.507.988h14.459c.47-.002.935-.091 1.369-.265a3.57 3.57 0 0 0 1.156-.745c.33-.319.59-.697.765-1.112.175-.415.262-.858.256-1.305L20.57 6.89Zm-9.796-4.6c1.04 0 2.036.393 2.771 1.091a3.634 3.634 0 0 1 1.148 2.634H6.857c0-.988.413-1.935 1.148-2.634a4.024 4.024 0 0 1 2.77-1.09Z" fill="currentColor"/>
</svg>
