<svg id="e5MfWVGSvoK1" xmlns="http://www.w3.org/2000/svg" viewBox="0 0 44 44" shape-rendering="geometricPrecision" text-rendering="geometricPrecision">
  <path d="M27.111 9.281h6.814c.502 0 .909.407.909.909v1.817a.909.909 0 0 1-.909.908h-23.62a.909.909 0 0 1-.909-.908V10.19c0-.502.407-.909.909-.909h6.813l.534-1.061a1.347 1.347 0 0 1 1.215-.756h6.49c.517 0 .99.293 1.22.756l.534 1.061ZM13.938 36.536a2.725 2.725 0 0 1-2.725-2.726V14.732h21.803V33.81a2.725 2.725 0 0 1-2.725 2.726H13.938Zm13.627-18.17a.909.909 0 0 0-.908.909v12.718a.909.909 0 0 0 1.817 0V19.275a.909.909 0 0 0-.909-.909Zm-5.45 0a.909.909 0 0 0-.909.909v12.718a.909.909 0 0 0 1.817 0V19.275a.909.909 0 0 0-.908-.909Zm-5.451 0a.909.909 0 0 0-.909.909v12.718a.909.909 0 0 0 1.817 0V19.275a.909.909 0 0 0-.908-.909Z" transform="matrix(1.51348 0 0 1.51348 -11.356 -11.297)" clip-rule="evenodd" fill-rule="evenodd" fill="currentColor"/>
</svg>
