<svg id="e5MfWVGSvoK1" xmlns="http://www.w3.org/2000/svg" xmlns:xlink="http://www.w3.org/1999/xlink" viewBox="0 0 44 44" shape-rendering="geometricPrecision" text-rendering="geometricPrecision"><path d="M27.111,9.281h6.814c.502,0,.909.407.909.909v1.817c-.000552.501636-.407363.908-.909.908h-23.62c-.501637,0-.908448-.406364-.909-.908v-1.817c0-.502.407-.909.909-.909h6.813l.534-1.061c.226587-.464079.698562-.757753,1.215-.756h6.49c.517,0,.99.293,1.22.756l.534,1.061ZM13.938,36.536c-.722888,0-1.416154-.287235-1.92722-.798488s-.798045-1.204624-.79778-1.927512v-19.078h21.803v19.078c.000265.722888-.286715,1.41626-.79778,1.927512s-1.204332.798488-1.92722.798488h-16.353Zm13.627-18.17c-.501636.000552-.908.407363-.908.909v12.718c.01626.490022.418208.878855.9085.878855s.89224-.388833.9085-.878855v-12.718c0-.502027-.406973-.909-.909-.909Zm-5.45,0c-.502027,0-.909.406973-.909.909v12.718c.01626.490022.418208.878855.9085.878855s.89224-.388833.9085-.878855v-12.718c0-.501637-.406364-.908448-.908-.909Zm-5.451,0c-.502027,0-.909.406973-.909.909v12.718c.01626.490022.418208.878855.9085.878855s.89224-.388833.9085-.878855v-12.718c0-.501637-.406364-.908448-.908-.909Z" transform="matrix(1.513484 0 0 1.513484-11.355698-11.296647)" clip-rule="evenodd" fill-rule="evenodd"/></svg>
