<svg xmlns="http://www.w3.org/2000/svg" fill="none" viewBox="6.29 4.71 31.43 31.43">
  <path fill-rule="evenodd" clip-rule="evenodd" d="M33.358 5.164c.6-.6 1.571-.6 2.17 0L37.266 6.9c.6.6.6 1.571 0 2.17l-1.52 1.52-3.906-3.907 1.52-1.52ZM19.035 19.487a.92.92 0 0 0-.223.36l-1.302 3.907a.92.92 0 0 0 1.165 1.165l3.906-1.303a.92.92 0 0 0 .36-.222l11.502-11.502-3.906-3.907-11.502 11.502Zm5.208 5.21a2.779 2.779 0 0 1-1.08.666l-3.906 1.303a2.754 2.754 0 0 1-.873.141 2.744 2.744 0 0 1-1.954-.809 2.747 2.747 0 0 1-.667-2.827l1.302-3.906c.135-.405.366-.778.668-1.08l8.437-8.437H9.662a3.38 3.38 0 0 0-3.376 3.376v19.643a3.38 3.38 0 0 0 3.376 3.376h19.643a3.38 3.38 0 0 0 3.376-3.376V16.259l-8.438 8.437Z" fill="currentColor"/>
</svg>
