<svg xmlns="http://www.w3.org/2000/svg" viewBox="0 0 44 44" fill="none">
  <path d="M37.074 12.834h-25.26c-1.792 0-3.259 1.523-3.259 3.384v1.27c0 .465.367.846.815.846.448 0 .815-.381.815-.847v-1.269c0-.17.04-.338.082-.508l9.125 8.123-9.125 8.124c-.041-.17-.082-.339-.082-.508v-1.27c0-.465-.367-.845-.815-.845-.448 0-.815.38-.815.846v1.269c0 1.861 1.467 3.384 3.26 3.384h25.259c1.793 0 3.26-1.523 3.26-3.384v-15.23c0-1.862-1.468-3.386-3.26-3.386Zm-25.585 1.734c.081-.042.203-.042.326-.042h25.259c.122 0 .244 0 .326.042L24.974 25.61a.832.832 0 0 1-1.06 0L11.49 14.568Zm25.585 18.573h-25.26c-.122 0-.244 0-.325-.042l9.166-8.165 2.2 1.988a2.308 2.308 0 0 0 3.178 0l2.2-1.989L37.4 33.1c-.082.042-.204.042-.326.042Zm1.63-1.692c0 .17-.041.338-.082.508l-9.126-8.123 9.126-8.124c.04.17.081.339.081.508v15.23ZM6.11 21.719c0-.466.367-.847.815-.847h4.889c.448 0 .815.38.815.846 0 .465-.367.846-.815.846h-4.89c-.447 0-.814-.38-.814-.846Zm5.704 5.076H4.48c-.448 0-.814-.38-.814-.846 0-.466.366-.846.814-.846h7.334c.448 0 .815.38.815.846 0 .465-.367.846-.815.846Z" fill="currentColor"/>
</svg>
