<svg xmlns="http://www.w3.org/2000/svg" viewBox="0 0 44 44" fill="none">
  <path d="m35.59 15.44-7.03-7.03a2.996 2.996 0 0 0-2.132-.884h-8.856c-.806 0-1.563.314-2.133.884l-7.03 7.03a2.996 2.996 0 0 0-.883 2.132v8.856c0 .806.314 1.563.884 2.133l7.03 7.03c.569.569 1.326.883 2.132.883h8.856c.806 0 1.563-.314 2.133-.884l7.03-7.03c.569-.569.883-1.326.883-2.132v-8.856c0-.806-.314-1.563-.884-2.133ZM22 31.65a1.208 1.208 0 0 1-1.206-1.207c0-.665.541-1.206 1.206-1.206.665 0 1.206.541 1.206 1.206 0 .665-.541 1.206-1.206 1.206Zm1.206-4.222c0 .333-.27.603-.603.603h-1.206a.603.603 0 0 1-.603-.603V14.16c0-.333.27-.603.603-.603h1.206c.333 0 .603.27.603.603v13.268Z" fill="currentColor"/>
</svg>
