<svg viewBox="0 0 48 48" fill="none" xmlns="http://www.w3.org/2000/svg">
  <g clip-path="url(#clip0_2155_121723)">
    <path d="M42 25.115c.002-3.269-.927-6.47-2.678-9.225a17.032 17.032 0 0 0-7.199-6.316 16.906 16.906 0 0 0-9.447-1.413 16.951 16.951 0 0 0-8.714 3.935 17.114 17.114 0 0 0-5.23 8.043 17.206 17.206 0 0 0-.094 9.61 17.12 17.12 0 0 0 5.072 8.144A16.956 16.956 0 0 0 22.345 42V30.055h-4.317v-4.94h4.317v-3.773c-.091-.88.01-1.769.298-2.605a6.049 6.049 0 0 1 1.366-2.232 5.973 5.973 0 0 1 4.757-1.817c1.275.018 2.546.13 3.805.334v4.209h-2.136a2.442 2.442 0 0 0-2.021.663 2.474 2.474 0 0 0-.75 2.003v3.218h4.714l-.754 4.947h-3.967V42a16.979 16.979 0 0 0 10.264-5.782A17.173 17.173 0 0 0 42 25.115Z" fill="currentColor"/>
  </g>
  <defs>
    <clipPath id="clip0_2155_121723">
      <path fill="#fff" d="M0 0h48v48H0z"/>
    </clipPath>
  </defs>
</svg>
