<svg xmlns="http://www.w3.org/2000/svg" viewBox="0 0 28 21" fill="none">
  <path fill-rule="evenodd" clip-rule="evenodd" d="M19 .017c-2.407 0-4.431 1.725-4.898 4H1a1 1 0 0 0 0 2h13.102c.466 2.274 2.49 4 4.898 4 2.407 0 4.432-1.726 4.899-4H27a1 1 0 1 0 0-2H23.9c-.467-2.275-2.492-4-4.899-4Zm0 2c1.669 0 3 1.331 3 3 0 1.668-1.331 3-3 3s-3-1.332-3-3c0-1.67 1.331-3 3-3ZM9 10.017c-2.407 0-4.432 1.725-4.898 4H1a1 1 0 1 0 0 2h3.102c.466 2.274 2.49 4 4.898 4 2.407 0 4.432-1.726 4.899-4H27a1 1 0 1 0 0-2H13.9c-.467-2.275-2.492-4-4.899-4Zm0 2c1.669 0 3 1.33 3 3 0 1.668-1.331 3-3 3s-3-1.332-3-3c0-1.67 1.331-3 3-3Z" fill="currentColor"/>
</svg>
