<svg xmlns="http://www.w3.org/2000/svg" viewBox="0 0 44 44" fill="none">
  <path fill-rule="evenodd" clip-rule="evenodd" d="M35.217 15.373h-5.974c.428-.293.796-.583 1.053-.844a3.946 3.946 0 0 0 0-5.555c-1.48-1.491-4.06-1.488-5.538 0-.82.822-2.99 4.165-2.69 6.399h-.136c.298-2.234-1.873-5.577-2.69-6.399-1.481-1.488-4.06-1.488-5.539 0a3.952 3.952 0 0 0-.001 5.555c.258.26.627.551 1.055.844H8.783c-1.04 0-1.888.848-1.888 1.888v2.832c0 .521.423.944.944.944h12.273v-3.776h3.776v3.776H36.16a.944.944 0 0 0 .944-.944v-2.832a1.89 1.89 0 0 0-1.888-1.888ZM20 15.311s-.079.062-.349.062c-1.305 0-3.795-1.356-4.609-2.175a2.06 2.06 0 0 1 0-2.893 2.005 2.005 0 0 1 1.431-.596c.539 0 1.046.211 1.43.596 1.272 1.28 2.537 4.55 2.097 5.006Zm4.347.062c-.268 0-.348-.06-.348-.062-.44-.455.825-3.726 2.098-5.006.76-.768 2.092-.772 2.86 0a2.056 2.056 0 0 1 0 2.893c-.813.82-3.304 2.175-4.61 2.175ZM8.783 22.926v11.329a1.89 1.89 0 0 0 1.888 1.888h9.44V22.926H8.784Zm15.105 13.217V22.926h11.329v11.329a1.889 1.889 0 0 1-1.889 1.888h-9.44Z" fill="currentColor"/>
</svg>
