<svg xmlns="http://www.w3.org/2000/svg" viewBox="6.29 9.43 29.86 25.14">
  <path
    d="M20.709 34.276a51.073 51.073 0 0 1-9.086-6.804c-3.546-3.451-5.337-6.803-5.337-9.956.017-2.158.942-4.222 2.573-5.738 1.63-1.517 3.833-2.361 6.124-2.349a9.206 9.206 0 0 1 3.958.877 8.568 8.568 0 0 1 2.268 1.557 8.9 8.9 0 0 1 2.275-1.557 9.187 9.187 0 0 1 4.265-.871 9.13 9.13 0 0 1 4.18 1.18 8.485 8.485 0 0 1 3.051 2.939 7.87 7.87 0 0 1 1.163 3.962c0 3.152-1.795 6.508-5.338 9.96a51.011 51.011 0 0 1-9.106 6.792l-.49.304-.5-.296Z"
    fill="currentColor"></path>
</svg>
