<svg xmlns="http://www.w3.org/2000/svg" viewBox="0 0 44 44" width="44" fill="none">
  <path d="M16.103 11.585a6.117 6.117 0 0 0-4.275 1.738 5.876 5.876 0 0 0-1.773 4.19c0 2.585 1.502 5.438 4.45 8.48A45.188 45.188 0 0 0 22 32.004a45.185 45.185 0 0 0 7.49-6.013c2.952-3.04 4.45-5.89 4.45-8.479a5.875 5.875 0 0 0-1.773-4.19 6.117 6.117 0 0 0-4.275-1.738 6.077 6.077 0 0 0-4.327 1.786L22 14.943l-1.57-1.572a6.075 6.075 0 0 0-4.327-1.788m0-2.154A8.291 8.291 0 0 1 22 11.87a8.305 8.305 0 0 1 5.896-2.437 8.348 8.348 0 0 1 5.826 2.372 8.019 8.019 0 0 1 2.42 5.71c0 3.157-1.7 6.508-5.055 9.965a48.715 48.715 0 0 1-8.613 6.797l-.474.295-.475-.295a48.729 48.729 0 0 1-8.613-6.797c-3.354-3.458-5.055-6.811-5.055-9.968a8.019 8.019 0 0 1 2.42-5.71 8.35 8.35 0 0 1 5.826-2.373Z" fill="currentColor"/>
</svg>
