<svg xmlns="http://www.w3.org/2000/svg" viewBox="0 0 44 44" fill="none">
  <path fill-rule="evenodd" clip-rule="evenodd" d="M19.8 2.2c10.935 0 19.8 8.865 19.8 19.8s-8.865 19.8-19.8 19.8S0 32.935 0 22 8.865 2.2 19.8 2.2Zm-6.007 12.538c-.555.889-.833 1.765-.833 2.63 0 .42.175.81.526 1.17a1.732 1.732 0 0 0 1.291.539c.866 0 1.453-.515 1.763-1.545.328-.984.729-1.729 1.202-2.234.474-.505 1.212-.758 2.214-.758.856 0 1.555.25 2.097.752a2.415 2.415 0 0 1 .813 1.844c.003.364-.09.721-.267 1.039-.177.318-.397.61-.655.867-.26.26-.681.645-1.264 1.155a21.6 21.6 0 0 0-1.585 1.51 5.05 5.05 0 0 0-.943 1.476c-.237.56-.355 1.223-.355 1.988 0 .61.161 1.07.485 1.38a1.66 1.66 0 0 0 1.195.464c.911 0 1.453-.473 1.626-1.42.1-.447.176-.759.226-.936.052-.185.123-.363.212-.533.115-.212.255-.41.416-.588.235-.262.483-.51.745-.745 1.12-1.002 1.897-1.715 2.33-2.138a6.225 6.225 0 0 0 1.12-1.51c.314-.583.472-1.262.472-2.036a4.876 4.876 0 0 0-.827-2.733c-.551-.838-1.332-1.5-2.344-1.988-1.01-.487-2.177-.73-3.497-.73-1.421 0-2.665.291-3.73.874-1.066.583-1.877 1.318-2.433 2.207Zm4.38 17.066c.4.355.92.548 1.455.54a2.075 2.075 0 0 0 1.42-.547c.41-.364.615-.865.615-1.503a2.006 2.006 0 0 0-2.035-2.036 2.03 2.03 0 0 0-1.476.588 1.945 1.945 0 0 0-.601 1.448c0 .647.207 1.15.622 1.51Z" fill="currentColor"/>
</svg>
