<svg xmlns="http://www.w3.org/2000/svg" fill="none" viewBox="14.07 16.6 15.93 11.39">
  <path fill-rule="evenodd" clip-rule="evenodd" d="M27.13 26.98 16.942 16.794l-.002-.003a.592.592 0 1 0-.833.84l.892.892a10.346 10.346 0 0 0-2.744 2.768 1.064 1.064 0 0 0 0 1.194c1.866 2.761 4.823 4.379 7.78 4.359a8.448 8.448 0 0 0 2.814-.472l1.444 1.444a.591.591 0 0 0 .838-.834l-.003-.002Zm-5.093-1.742a3.352 3.352 0 0 1-3.054-4.734l.931.932a2.17 2.17 0 0 0 2.573 2.573l.932.932a3.335 3.335 0 0 1-1.383.297Zm7.78-3.948c-1.866-2.763-4.823-4.38-7.78-4.36a8.45 8.45 0 0 0-2.814.471l1.43 1.431a3.353 3.353 0 0 1 4.437 4.437l1.983 1.983a10.341 10.341 0 0 0 2.744-2.769 1.064 1.064 0 0 0 0-1.193Zm-8.231-1.525a2.175 2.175 0 0 1 2.136.756 2.17 2.17 0 0 1 .437 1.816l-2.573-2.572Z" fill="currentColor"/>
</svg>
