<svg viewBox="0 0 48 48" fill="none" xmlns="http://www.w3.org/2000/svg">
  <path fill-rule="evenodd" clip-rule="evenodd" d="M32.4994 7H15.4998C10.8253 7 7 10.8253 7 15.4998V32.5002C7 37.1734 10.8253 41 15.4998 41H32.4994C37.1738 41 40.9992 37.1734 40.9992 32.5002V15.4998C40.9992 10.8253 37.1738 7 32.4994 7ZM38.1658 32.5002C38.1658 35.6239 35.6248 38.1666 32.4994 38.1666H15.4998C12.3757 38.1666 9.8334 35.6239 9.8334 32.5002V15.4998C9.8334 12.3753 12.3757 9.8334 15.4998 9.8334H32.4994C35.6248 9.8334 38.1658 12.3753 38.1658 15.4998V32.5002ZM33.2091 16.9163C34.3827 16.9163 35.3341 15.9649 35.3341 14.7914C35.3341 13.6178 34.3827 12.6664 33.2091 12.6664C32.0356 12.6664 31.0842 13.6178 31.0842 14.7914C31.0842 15.9649 32.0356 16.9163 33.2091 16.9163ZM15.4998 23.9996C15.4998 19.3047 19.3043 15.4998 23.9996 15.4998C28.6936 15.4998 32.4994 19.3047 32.4994 23.9996C32.4994 28.6928 28.6936 32.5002 23.9996 32.5002C19.3043 32.5002 15.4998 28.6928 15.4998 23.9996ZM18.3332 23.9996C18.3332 27.1297 20.8704 29.6668 23.9996 29.6668C27.1289 29.6668 29.666 27.1297 29.666 23.9996C29.666 20.8696 27.1289 18.3332 23.9996 18.3332C20.8704 18.3332 18.3332 20.8696 18.3332 23.9996Z" fill="currentColor"/>
</svg>
