<svg xmlns="http://www.w3.org/2000/svg" viewBox="0 0 48 48" fill="none">
  <path d="M35.969 35.973h-5.031V28.09c0-1.88-.039-4.303-2.624-4.303-2.626 0-3.026 2.047-3.026 4.164v8.027h-5.031V19.75h4.837v2.212h.056a5.305 5.305 0 0 1 4.776-2.622c5.103 0 6.045 3.357 6.045 7.728v8.9l-.002.005ZM14.562 17.53a2.924 2.924 0 1 1 0-5.849 2.924 2.924 0 0 1 0 5.85Zm2.516 18.444H12.03V19.75h5.05l-.003 16.223ZM38.487 7H9.516A2.479 2.479 0 0 0 7 9.45v29.1A2.478 2.478 0 0 0 9.516 41h28.968A2.488 2.488 0 0 0 41 38.55V9.45A2.488 2.488 0 0 0 38.484 7h.004Z" fill="currentColor"/>
</svg>
