<svg xmlns="http://www.w3.org/2000/svg" fill="none" viewBox="6.42 13.07 31.17 23.42">
  <path fill-rule="evenodd" clip-rule="evenodd" d="M10.594 15.11a2.089 2.089 0 1 1-4.177-.001 2.089 2.089 0 0 1 4.177 0Zm25.434 1.434h-20.84a1.555 1.555 0 1 1 0-3.11h20.84a1.555 1.555 0 0 1 0 3.11Zm-20.84 9.761h20.84a1.554 1.554 0 1 0 0-3.11h-20.84a1.555 1.555 0 1 0 0 3.11Zm0 9.762h20.84a1.555 1.555 0 1 0 0-3.11h-20.84a1.555 1.555 0 1 0 0 3.11ZM8.505 26.84a2.089 2.089 0 1 0 0-4.177 2.089 2.089 0 0 0 0 4.177Zm2.089 7.553a2.089 2.089 0 1 1-4.178 0 2.089 2.089 0 0 1 4.178 0Z" fill="currentColor"/>
</svg>
