<svg xmlns="http://www.w3.org/2000/svg" fill="none" viewBox="11.38 7.05 26 29.91">
  <path fill-rule="evenodd" clip-rule="evenodd"
    d="M31.255 18.028h2.296c2.109 0 3.824 1.572 3.824 3.505v11.916c0 1.933-1.715 3.505-3.824 3.505H15.198c-2.108 0-3.823-1.572-3.823-3.505V21.534c0-1.933 1.715-3.505 3.823-3.505h2.292v-4.803c0-3.407 3.088-6.18 6.883-6.18s6.882 2.773 6.882 6.18v4.803Zm-6.882-8.645c-2.39 0-4.334 1.723-4.334 3.842v4.803h8.667v-4.803c0-2.119-1.944-3.842-4.333-3.842Zm9.178 25.235c.703 0 1.275-.524 1.275-1.169V21.534c0-.644-.572-1.169-1.275-1.169H15.198c-.702 0-1.274.525-1.274 1.169v11.916c0 .645.572 1.169 1.274 1.169h18.353Zm-11.534-8.704c0-1.194 1.056-2.161 2.358-2.161s2.358.967 2.358 2.161c0 .764-.433 1.435-1.086 1.82v2.561c0 .645-.57 1.168-1.274 1.168-.704 0-1.275-.523-1.275-1.168V27.73c-.65-.384-1.08-1.054-1.08-1.816Z"
    fill="currentColor"></path>
</svg>