<svg xmlns="http://www.w3.org/2000/svg" viewBox="0 0 44 44" fill="none">
  <path fill-rule="evenodd" clip-rule="evenodd" d="M17.982 36.667h-1.515c-1.866 0-3.37 0-4.552-.16-1.228-.164-2.262-.517-3.084-1.339-.82-.82-1.174-1.855-1.339-3.083-.159-1.182-.159-2.684-.159-4.548V16.463c0-1.864 0-3.366.159-4.548.165-1.228.518-2.262 1.34-3.083.82-.821 1.855-1.174 3.083-1.34 1.183-.159 2.687-.159 4.552-.159h1.515c1.865 0 3.37 0 4.552.16 1.228.165 2.262.518 3.083 1.339.717.716 1.078 1.596 1.268 2.63.185 1.005.22 2.235.229 3.71a1.023 1.023 0 0 1-2.047.012c-.008-1.492-.047-2.55-.194-3.352-.142-.773-.37-1.22-.703-1.553-.377-.378-.908-.624-1.909-.758-1.03-.139-2.396-.141-4.354-.141h-1.365c-1.958 0-3.324.002-4.355.14-1 .135-1.53.381-1.908.76-.378.377-.624.907-.759 1.908-.138 1.03-.14 2.396-.14 4.355v10.915c0 1.958.002 3.324.14 4.354.135 1.001.381 1.532.759 1.91.377.377.907.623 1.909.758 1.03.138 2.396.14 4.354.14h1.365c1.958 0 3.324-.002 4.355-.14 1-.135 1.53-.381 1.908-.759.332-.332.56-.78.703-1.553.147-.802.186-1.86.194-3.352a1.023 1.023 0 1 1 2.047.012c-.009 1.475-.044 2.705-.229 3.71-.19 1.034-.551 1.914-1.268 2.63-.82.822-1.855 1.175-3.083 1.34-1.183.159-2.687.159-4.552.159ZM16.884 22c0 .565.458 1.023 1.023 1.023h14.97l-2.675 2.293a1.023 1.023 0 1 0 1.332 1.554l4.775-4.093a1.023 1.023 0 0 0 0-1.554l-4.775-4.093a1.023 1.023 0 1 0-1.332 1.554l2.675 2.293h-14.97c-.565 0-1.023.458-1.023 1.023Z" fill="currentColor"/>
</svg>
