<svg xmlns="http://www.w3.org/2000/svg" viewBox="0 0 48 44" fill="none">
  <path fill-rule="evenodd" clip-rule="evenodd" d="M35.624 23.031h9.563c1.552 0 2.813 1.156 2.813 2.578v5.156c0 1.422-1.262 2.578-2.812 2.578H17.813c-4.621 0-8.98-.647-12.272-1.82C1.967 30.249 0 28.454 0 26.468v-8.593c0-1.986 1.967-3.781 5.54-5.055C8.834 11.646 13.192 11 17.813 11c4.62 0 8.98.646 12.273 1.82 3.572 1.274 5.54 3.07 5.54 5.055v5.156Zm-1.875-5.156c0-2.439-6.545-5.156-15.937-5.156S1.875 15.436 1.875 17.875c0 2.439 6.545 5.156 15.937 5.156s15.937-2.717 15.937-5.156Zm0 5.156v-1.99c-.912.707-2.141 1.345-3.665 1.888-.096.035-.193.069-.292.102h3.957Zm-31.874-1.99v5.427h.006c0 .898.89 1.835 2.484 2.66v-2.922c0-.475.42-.86.937-.86.518 0 .937.385.937.86v3.723c.746.265 1.577.509 2.484.724v-1.281c0-.474.42-.86.938-.86.517 0 .937.386.937.86v1.665c.786.136 1.616.252 2.484.344v-1.26c0-.475.42-.86.937-.86.518 0 .938.385.938.86v1.417c.801.049 1.63.078 2.484.085V30.12c0-.474.42-.859.937-.859.517 0 .937.385.937.86v1.503H21.8v-3.437c0-.475.42-.86.938-.86.517 0 .937.385.937.86v3.437h2.484V30.12c0-.474.42-.859.937-.859.518 0 .937.385.937.86v1.503h2.484V30.12c0-.474.42-.859.938-.859.517 0 .937.385.937.86v1.503h2.484V30.12c0-.474.42-.859.937-.859.518 0 .938.385.938.86v1.503h1.875v-6.875H17.813c-4.621 0-8.98-.647-12.272-1.82-1.524-.543-2.754-1.181-3.666-1.888Zm43.312 10.584c.517 0 .937-.386.937-.86v-5.156c0-.474-.42-.86-.937-.86h-4.688v6.876h4.688ZM17.812 20.842c-2.967 0-5.772-.252-7.898-.71C7.28 19.563 6 18.748 6 17.64c0-1.11 1.28-1.925 3.914-2.492 2.126-.458 4.93-.71 7.898-.71 2.967 0 5.772.252 7.898.71 2.634.567 3.914 1.383 3.914 2.492s-1.28 1.924-3.914 2.491c-2.126.459-4.931.71-7.898.71Zm0-4.686c-2.563 0-5.033.199-6.955.56-1.77.334-2.588.713-2.884.923.297.21 1.114.59 2.884.922 1.923.363 4.392.562 6.955.562 2.563 0 5.033-.2 6.955-.562 1.77-.333 2.588-.712 2.884-.922-.297-.21-1.114-.589-2.884-.922-1.923-.362-4.392-.561-6.955-.561Z" fill="currentColor"/>
</svg>
