<svg xmlns="http://www.w3.org/2000/svg" fill="none" viewBox="8.25 3.67 27.5 36.67">
  <path fill-rule="evenodd" clip-rule="evenodd" d="M35.75 33.962c0-2.36-2.375-4.33-6.312-5.432a56.423 56.423 0 0 1-1.443 2.247c3.507.824 5.351 2.242 5.351 3.185 0 .572-.76 1.55-2.905 2.422-2.235.91-5.233 1.41-8.441 1.41-3.208 0-6.206-.5-8.441-1.41-2.145-.871-2.906-1.85-2.906-2.422 0-.948 1.844-2.363 5.35-3.185a56.094 56.094 0 0 1-1.44-2.244 15.89 15.89 0 0 0-2.895 1.104c-2.825 1.438-3.418 3.145-3.418 4.325 0 1.924 1.579 3.626 4.445 4.792 2.505 1.019 5.81 1.58 9.305 1.58 3.496 0 6.8-.562 9.305-1.58 2.866-1.166 4.445-2.868 4.445-4.792ZM14.74 6.474c1.9-1.872 4.58-2.808 7.26-2.808 2.68 0 5.36.937 7.26 2.809 5.15 5.075 3.09 14.793-5.51 25.996A83.52 83.52 0 0 1 22 34.678a84.97 84.97 0 0 1-1.759-2.217c-8.594-11.2-10.65-20.914-5.5-25.987Zm13.743 8.2c0-3.775-2.908-6.847-6.483-6.847-3.575 0-6.483 3.072-6.483 6.847 0 3.776 2.908 6.848 6.483 6.848 3.575 0 6.483-3.072 6.483-6.848Zm-10.297 0c0 2.222 1.71 4.03 3.814 4.03 2.103 0 3.814-1.808 3.814-4.03 0-2.22-1.71-4.028-3.814-4.028-2.103 0-3.814 1.807-3.814 4.028Z" fill="currentColor"/>
</svg>
