<svg xmlns="http://www.w3.org/2000/svg" viewBox="0 0 48 48" fill="none">
  <path d="M32.534 9.28C29.93 7.76 27.084 7 24.001 7c-3.085 0-5.93.76-8.534 2.28a16.928 16.928 0 0 0-6.187 6.187C7.76 18.072 7 20.917 7 24c0 3.438.937 6.56 2.811 9.363 1.874 2.805 4.331 4.878 7.372 6.22-.06-1.579.036-2.885.287-3.918l2.192-9.253c-.37-.723-.553-1.623-.553-2.7 0-1.255.317-2.303.951-3.143.634-.842 1.41-1.263 2.325-1.263.737 0 1.306.244 1.704.731.399.487.598 1.1.598 1.837 0 .458-.085 1.015-.254 1.672-.17.657-.392 1.416-.664 2.28a27.86 27.86 0 0 0-.587 2.07c-.207.9-.037 1.67.509 2.313.546.642 1.269.962 2.17.962 1.578 0 2.873-.877 3.884-2.634 1.011-1.756 1.517-3.888 1.517-6.397 0-1.933-.624-3.505-1.87-4.715-1.248-1.21-2.986-1.815-5.214-1.815-2.494 0-4.512.8-6.054 2.401-1.542 1.601-2.313 3.517-2.313 5.744 0 1.328.376 2.443 1.129 3.343.25.296.332.612.243.952-.03.088-.088.31-.177.664-.088.354-.148.583-.177.686-.118.472-.399.62-.841.442-1.137-.472-2-1.29-2.59-2.456-.59-1.166-.886-2.516-.886-4.051 0-.989.159-1.978.476-2.967.317-.988.811-1.944 1.483-2.866a11.66 11.66 0 0 1 2.413-2.446c.937-.709 2.078-1.277 3.42-1.705 1.343-.428 2.79-.642 4.34-.642 2.095 0 3.977.465 5.644 1.394 1.668.93 2.94 2.133 3.819 3.609.877 1.476 1.317 3.054 1.317 4.737 0 2.214-.384 4.206-1.151 5.977-.768 1.771-1.852 3.162-3.255 4.173-1.402 1.01-2.996 1.516-4.781 1.516-.9 0-1.742-.21-2.524-.63-.782-.421-1.32-.92-1.616-1.495a781.182 781.182 0 0 1-1.195 4.67c-.28 1.049-.857 2.258-1.727 3.63A16.76 16.76 0 0 0 24 41c3.084 0 5.929-.76 8.533-2.28a16.93 16.93 0 0 0 6.187-6.187c1.52-2.605 2.28-5.45 2.28-8.534 0-3.084-.76-5.928-2.28-8.533a16.936 16.936 0 0 0-6.187-6.186Z" fill="currentColor"/>
</svg>
