<svg xmlns="http://www.w3.org/2000/svg" viewBox="0 0 29 29" fill="none">
  <path opacity=".55" d="M28.068 5.475a3.135 3.135 0 0 0-2.798-1.712h-8.116c-.84 0-1.644.336-2.235.931L4.202 15.522c0 .003 0 .004-.003.004-.383.398-.647.87-.786 1.374L1.29 13.278a3.142 3.142 0 0 1 1.12-4.301l13.154-7.69a3.126 3.126 0 0 1 2.4-.322l7.84 2.101a3.144 3.144 0 0 1 2.264 2.41Z" fill="currentColor"/>
  <path d="M17.154 3.763h8.116a3.142 3.142 0 0 1 3.143 3.143v8.127c0 .833-.33 1.634-.92 2.222L16.777 27.969a3.144 3.144 0 0 1-4.431.016L4.229 19.97a3.145 3.145 0 0 1-.031-4.444c.003 0 .004 0 .004-.003L14.92 4.696a3.144 3.144 0 0 1 2.235-.933Zm4.188 9.428a2.358 2.358 0 1 0-.002-4.716 2.358 2.358 0 0 0 .002 4.716Z" fill="currentColor"/>
</svg>
