<svg xmlns="http://www.w3.org/2000/svg" viewBox="0 0 65 64" fill="none">
  <path fill-rule="evenodd" clip-rule="evenodd" d="m59.609 29.007-1.664-6.637a1.01 1.01 0 0 0 .797-.984v-1.073a4.219 4.219 0 0 0-4.214-4.214h-7.562v-2.206a2.084 2.084 0 0 0-2.077-2.078H6.36a2.084 2.084 0 0 0-2.078 2.078v18.196c0 .551.453 1.004 1.004 1.004.552 0 1.005-.453 1.005-1.004V13.893s.03-.069.069-.069h38.538s.068.03.068.069v18.196c0 .551.453 1.004 1.005 1.004.551 0 1.004-.453 1.004-1.004v-1.133h11.845a3.3 3.3 0 0 1 3.121 2.275h-3.121c-.551 0-1.004.453-1.004 1.004v2.147a3.143 3.143 0 0 0 3.14 3.14H62.1v4.412h-2.63a6.348 6.348 0 0 0-8.083-3.929 6.352 6.352 0 0 0-3.928 3.929h-.483v-7.562c0-.552-.443-1.005-1.004-1.005-.552 0-1.005.444-1.005 1.005v7.562H24.143a6.348 6.348 0 0 0-8.084-3.929 6.352 6.352 0 0 0-3.929 3.929H6.36s-.068-.03-.068-.07V41.66h4.342c.551 0 1.004-.453 1.004-1.004 0-.552-.453-1.005-1.004-1.005h-9.63C.453 39.65 0 40.104 0 40.656c0 .551.453 1.004 1.004 1.004h3.28v2.206c0 1.142.925 2.067 2.077 2.077h5.425v.07a6.356 6.356 0 0 0 6.35 6.36c3.506 0 6.361-2.846 6.361-6.351v-.069h22.617v.069a6.35 6.35 0 0 0 6.36 6.35 6.347 6.347 0 0 0 6.351-6.35v-.069h3.279c.551 0 1.004-.453 1.004-1.004V34.245a5.3 5.3 0 0 0-4.49-5.228l-.01-.01Zm-12.643-10.9h7.562c1.22 0 2.206.985 2.206 2.206v.069h-9.768v-2.275Zm0 10.84V22.39h8.92l1.645 6.558H46.966Zm-28.84 21.406a4.353 4.353 0 0 1-4.351-4.352 4.353 4.353 0 0 1 4.352-4.352 4.353 4.353 0 0 1 4.352 4.352c0 2.403-1.95 4.342-4.352 4.352Zm35.329 0a4.353 4.353 0 0 1-4.352-4.352 4.353 4.353 0 0 1 4.352-4.352 4.353 4.353 0 0 1 4.352 4.352c0 2.403-1.95 4.342-4.352 4.352Zm8.635-12.849h-1.133c-.63 0-1.132-.512-1.142-1.132V35.23h2.275v2.274Zm-43.963 6.43a2.078 2.078 0 1 0 2.077 2.077 2.084 2.084 0 0 0-2.077-2.077Zm33.25 2.077c0-1.152.936-2.077 2.078-2.077a2.084 2.084 0 0 1 2.077 2.077 2.072 2.072 0 0 1-2.077 2.078 2.072 2.072 0 0 1-2.078-2.078ZM25.69 40.645c0 .551.443 1.004 1.004 1.004h14.986c.551 0 1.004-.453 1.004-1.004 0-.551-.453-1.004-1.004-1.004H26.693c-.552 0-1.004.443-1.004 1.004Zm-9.699-3.269H3.14a1.002 1.002 0 0 1-1.003-1.004c0-.562.453-1.005 1.004-1.005h12.85c.56 0 1.003.453 1.003 1.005 0 .561-.453 1.004-1.004 1.004Z" fill="currentColor"/>
</svg>
