<svg xmlns="http://www.w3.org/2000/svg" viewBox="0 0 64 64" fill="none">
  <path fill-rule="evenodd" clip-rule="evenodd" d="M47.977 28.233a14.805 14.805 0 0 1 5.883 5.334 14.659 14.659 0 0 1 2.263 7.834c0 8.117-6.604 14.721-14.721 14.721-2.78 0-5.49-.782-7.834-2.263a14.81 14.81 0 0 1-5.334-5.882l-.07-.137H9.056a1.18 1.18 0 0 1-1.179-1.179V9.056c0-.65.529-1.179 1.179-1.179H46.66c.65 0 1.178.529 1.178 1.179v19.108l.138.069Zm-15.917-18h-8.403v6.334l3.668-1.864a1.2 1.2 0 0 1 1.067 0l3.668 1.864v-6.333ZM27.17 45.17a14.712 14.712 0 0 1-.49-3.768c0-8.118 6.604-14.722 14.721-14.722 1.275 0 2.542.165 3.768.49l.314.084v-17.02H34.416v8.253c0 .407-.215.792-.562 1.004a1.173 1.173 0 0 1-1.15.047l-4.846-2.463-4.845 2.463a1.185 1.185 0 0 1-1.15-.047 1.186 1.186 0 0 1-.562-1.003v-8.253H10.234v35.25h17.02l-.084-.315Zm2.952 1.295a12.398 12.398 0 0 0 11.28 7.302c6.817 0 12.364-5.547 12.364-12.365 0-6.818-5.547-12.365-12.365-12.365-6.818 0-12.365 5.548-12.365 12.365 0 1.572.293 3.105.87 4.556l.01.025.016.023c.083.124.142.261.173.409l.006.026.01.024Zm8.831-9.645h4.567a5.278 5.278 0 0 1 5.273 5.273v.095a5.278 5.278 0 0 1-5.273 5.272h-6.664a1.18 1.18 0 0 1 0-2.356h6.664a2.92 2.92 0 0 0 2.916-2.916v-.095a2.92 2.92 0 0 0-2.916-2.917h-4.576l1.275 1.273c.222.222.345.517.345.832a1.173 1.173 0 0 1-1.178 1.179c-.314 0-.61-.122-.832-.344l-3.282-3.275a1.17 1.17 0 0 1-.346-.833c0-.315.122-.61.344-.833l3.276-3.28a1.179 1.179 0 0 1 1.667 1.663l-1.26 1.262Z" fill="currentColor"/>
</svg>
