<svg xmlns="http://www.w3.org/2000/svg" viewBox="0 0 64 64" fill="none">
  <path fill-rule="evenodd" clip-rule="evenodd" d="M49.111 20.664c0 3.569-2.38 8.958-7.064 16.031C55.243 38.25 64 42.768 64 48.12c0 6.719-13.904 11.98-31.654 11.98C14.597 60.1.692 54.837.692 48.12c0-5.351 8.757-9.869 21.954-11.424-4.688-7.073-7.065-12.462-7.065-16.031 0-9.258 7.506-16.764 16.764-16.764 9.26 0 16.767 7.505 16.767 16.764ZM32.346 5.784c-8.214.009-14.87 6.665-14.88 14.88 0 3.35 2.631 8.976 7.61 16.27a145.03 145.03 0 0 0 7.27 9.706 145.088 145.088 0 0 0 7.27-9.706c4.98-7.294 7.61-12.92 7.61-16.27-.009-8.215-6.665-14.871-14.88-14.88ZM51.02 48.118c-.39-.85-5.254-2.58-15.09-2.95-.524.676-2.312 2.927-2.863 3.557a.94.94 0 0 1-1.44 0c-.572-.656-2.323-2.867-2.862-3.558-9.836.372-14.703 2.103-15.09 2.95.483 1.07 7.207 3.011 18.672 3.011 11.466 0 18.188-1.943 18.673-3.01Zm-48.442 0c0 4.873 11.962 10.096 29.77 10.096h-.002c17.807 0 29.77-5.22 29.768-10.093 0-4.334-8.908-8.365-21.26-9.662a154.587 154.587 0 0 1-3.531 4.89c4.838.269 15.591 1.258 15.591 4.772 0 3.862-12.927 4.893-20.565 4.893-7.639 0-20.566-1.03-20.566-4.893 0-3.514 10.755-4.502 15.591-4.771a155.47 155.47 0 0 1-3.535-4.89c-12.353 1.291-21.261 5.325-21.261 9.658Zm36.456-20.767a9.393 9.393 0 0 1-6.687 2.769c-5.21-.007-9.451-4.252-9.457-9.46.002-5.215 4.244-9.456 9.457-9.456h.002c2.525.002 4.9.986 6.686 2.772a9.394 9.394 0 0 1 2.77 6.688c0 2.526-.985 4.9-2.771 6.687ZM32.95 13.095h-.608c-4.17.006-7.564 3.401-7.565 7.573 0 4.173 3.394 7.567 7.567 7.567s7.567-3.395 7.567-7.567c0-3.969-3.07-7.233-6.961-7.543v-.03Z" fill="currentColor"/>
</svg>
