<svg xmlns="http://www.w3.org/2000/svg" viewBox="0 0 64 64" fill="none">
  <path d="M47.29 48.298a.998.998 0 0 1 1.007-.992c.553 0 .992.439.992.992v14.696A.999.999 0 0 1 48.297 64H5.708a.998.998 0 0 1-.992-1.006V37.725c0-.553.44-.992.992-.992a.998.998 0 0 1 1.007.992v24.276H47.29V48.298Z" fill="currentColor"/>
  <path d="M14.552 60.4a1.01 1.01 0 0 1-1.006 1.007.997.997 0 0 1-.992-1.007V47.632c0-1.9.765-3.628 2.027-4.875a6.891 6.891 0 0 1 4.875-2.027 6.89 6.89 0 0 1 4.875 2.027 6.887 6.887 0 0 1 2.027 4.875V60.4a1.01 1.01 0 0 1-1.006 1.007.998.998 0 0 1-.992-1.007V47.632a4.872 4.872 0 0 0-1.446-3.458 4.876 4.876 0 0 0-3.458-1.446c-1.347 0-2.58.553-3.472 1.446a4.919 4.919 0 0 0-1.432 3.458V60.4ZM32.792 52.422h9.184v-6.987h-9.184v6.986Zm10.19 1.998H31.8a.999.999 0 0 1-1.006-.992v-9a.998.998 0 0 1 1.006-.991h11.182a.999.999 0 0 1 1.007.992v8.998a.999.999 0 0 1-1.007.993Z" fill="currentColor"/>
  <path fill-rule="evenodd" clip-rule="evenodd" d="M21.128 55.029c.539 0 .992-.453.992-.992 0-.552-.453-1.006-.992-1.006a1.01 1.01 0 0 0-1.006 1.006c0 .538.453.992 1.006.992Z" fill="currentColor"/>
  <path d="M22.29 30.98v-.057l.667-12.372h-3.842l-2.267 12.485a3 3 0 0 0 .808 2.027 2.619 2.619 0 0 0 3.812 0 3.01 3.01 0 0 0 .808-2.083h.014Zm2.65-12.429L24.29 30.98c0 .808.312 1.545.808 2.083a2.62 2.62 0 0 0 3.812 0 3.01 3.01 0 0 0 .808-2.083h.014l-.34-6.236a1 1 0 1 1 1.998-.1l.326 6.279v.057h.014c0 .808.312 1.545.808 2.083.481.51 1.162.822 1.913.822.552 0 .991.454.991 1.006a.998.998 0 0 1-.991 1.007 4.636 4.636 0 0 1-3.36-1.46c-.127-.141-.254-.283-.368-.44-.113.157-.24.299-.368.44-.85.893-2.041 1.46-3.345 1.46a4.637 4.637 0 0 1-3.359-1.46 5.388 5.388 0 0 1-.368-.44c-.114.157-.24.299-.368.44-.85.893-2.041 1.46-3.345 1.46a4.637 4.637 0 0 1-3.36-1.46 5.388 5.388 0 0 1-.368-.44c-.113.157-.24.299-.368.44-.85.893-2.041 1.46-3.345 1.46a4.636 4.636 0 0 1-3.359-1.46c-.127-.141-.255-.283-.368-.44a5.388 5.388 0 0 1-.369.44c-.85.893-2.04 1.46-3.344 1.46A4.62 4.62 0 0 1 1.74 34.82a4.868 4.868 0 0 1-1.645-2.707 3.241 3.241 0 0 1-.084-1.034c.028-.34.113-.68.255-1.02l4.138-10.091a5.585 5.585 0 0 1 1.97-2.494 5.219 5.219 0 0 1 2.99-.922h18.283a1.01 1.01 0 0 1 1.006 1.007c0 .538-.453.992-1.006.992h-2.706Zm-7.837 0H13.05L9.408 31.093c.028.766.326 1.46.808 1.97a2.622 2.622 0 0 0 3.812 0 3.01 3.01 0 0 0 .808-2.083h.014c0-.057 0-.128.014-.185l2.24-12.244Zm-6.122 0H9.365c-.694 0-1.332.198-1.856.567a3.629 3.629 0 0 0-1.261 1.616L2.108 30.81a1.595 1.595 0 0 0-.113.425c0 .142 0 .284.043.44.141.651.496 1.218.978 1.615a2.591 2.591 0 0 0 1.672.595c.737 0 1.417-.312 1.9-.822a3.01 3.01 0 0 0 .807-2.084h.014c0-.1.014-.184.029-.283L10.98 18.55ZM30.312 57.792a.998.998 0 0 1-1.006-.991 1.01 1.01 0 0 1 1.006-1.007H44.47c.552 0 .992.454.992 1.007 0 .553-.44.991-.992.991H30.312ZM62.002 23.384 49.134 45.15a.985.985 0 0 1-1.361.354.921.921 0 0 1-.368-.367L34.55 23.384a.315.315 0 0 0-.043-.072 16.27 16.27 0 0 1-1.445-3.642 15.908 15.908 0 0 1-.496-3.954A15.705 15.705 0 0 1 48.283 0c4.336 0 8.262 1.757 11.111 4.606A15.658 15.658 0 0 1 63.49 19.67a15.802 15.802 0 0 1-1.474 3.684l-.014.029ZM48.282 6.178A9.502 9.502 0 0 1 55.03 8.97a9.5 9.5 0 0 1 2.792 6.746 9.5 9.5 0 0 1-2.792 6.746 9.513 9.513 0 0 1-6.746 2.806 9.558 9.558 0 0 1-9.552-9.552 9.558 9.558 0 0 1 2.791-6.746 9.535 9.535 0 0 1 6.76-2.792Zm5.33 4.21a7.461 7.461 0 0 0-5.329-2.211 7.521 7.521 0 0 0-5.343 2.21 7.52 7.52 0 0 0-2.211 5.329c0 2.083.85 3.969 2.21 5.343a7.567 7.567 0 0 0 5.344 2.197 7.506 7.506 0 0 0 5.329-2.197 7.576 7.576 0 0 0 2.211-5.343 7.52 7.52 0 0 0-2.211-5.329Zm-5.33 32.297 12.005-20.322a13.742 13.742 0 0 0 1.715-6.647c0-3.784-1.545-7.213-4.025-9.694a13.683 13.683 0 0 0-9.694-4.024 13.687 13.687 0 0 0-9.708 4.024 13.663 13.663 0 0 0-4.011 9.694c0 1.205.141 2.353.425 3.444.298 1.12.723 2.183 1.261 3.174l.014.029 12.019 20.322Z" fill="currentColor"/>
</svg>
