<svg xmlns="http://www.w3.org/2000/svg" viewBox="0 0 64 64" fill="none">
  <path fill-rule="evenodd" clip-rule="evenodd" d="M51.024 26.145h2.165l-.012-.045a4.517 4.517 0 0 1 4.499 4.34 4.469 4.469 0 0 1-2.683 4.161c.642.8.992 1.826.97 2.864a4.527 4.527 0 0 1-2.684 3.957 4.496 4.496 0 0 1 .992 2.897 4.532 4.532 0 0 1-2.694 3.958 4.405 4.405 0 0 1 .992 2.886 4.364 4.364 0 0 1-1.376 3.078 4.44 4.44 0 0 1-3.111 1.262H35.296c-2.841 0-5.694-.642-8.253-1.86a10.152 10.152 0 0 1-9.843.056 3.733 3.733 0 0 1-2.807 1.252h-2.931c-2.097-.011-3.8-1.714-3.8-3.8V29.144c0-2.085 1.714-3.788 3.8-3.788h2.931c1.308 0 2.503.665 3.202 1.759 2.954-1.19 4.308-2.683 5.733-4.255l.017-.018.047-.051c.786-.864 1.61-1.77 2.715-2.598l3.484-2.639a28.23 28.23 0 0 0 4.566-6.031 5.34 5.34 0 0 1 7.204-1.996 5.361 5.361 0 0 1 2.57 3.202 5.31 5.31 0 0 1-.44 4.081 32.826 32.826 0 0 1-5.569 7.588l-1.668 1.669 11.375.056c.553 0 1.004.45 1.004 1.003 0 .553-.451 1.004-1.004 1.004H36.29c-.541 0-1.06-.226-1.443-.598-.79-.8-.8-2.097 0-2.897l1.668-1.669a30.19 30.19 0 0 0 5.209-7.103l.079-.124a3.343 3.343 0 0 0-1.32-4.543 3.353 3.353 0 0 0-4.554 1.319 29.968 29.968 0 0 1-5.05 6.595l-3.564 2.695c-.958.733-1.713 1.556-2.502 2.424l-.035.038c-1.545 1.69-3.148 3.444-6.583 4.787v2.108c0 .553-.451 1.004-1.004 1.004a1.006 1.006 0 0 1-1.003-1.004v-1.995c0-.981-.8-1.782-1.782-1.782h-2.93c-.982 0-1.782.801-1.782 1.782v22.007c0 .98.8 1.781 1.781 1.781h2.931c.406 0 .801-.146 1.117-.394a10.022 10.022 0 0 1-1.793-1.984 10.07 10.07 0 0 1-1.635-7.588 10.037 10.037 0 0 1 4.093-6.438v-2.018c0-.552.45-1.003 1.003-1.003.553 0 1.004.45 1.004 1.003v.902c4.08-1.69 8.827-.552 11.68 2.864 3.483 4.171 3.044 10.35-.936 13.991a17.063 17.063 0 0 0 6.359 1.23h12.785a2.507 2.507 0 0 0 2.48-2.38c0-.688-.248-1.296-.71-1.747a2.36 2.36 0 0 0-1.703-.71h-1.826a1.006 1.006 0 0 1-1.004-1.004c0-.552.451-1.003 1.004-1.003h3.46a2.509 2.509 0 0 0 2.492-2.38c0-1.375-1.082-2.457-2.412-2.457h-3.529c-.552 0-1.003-.45-1.003-1.003 0-.553.45-1.004 1.003-1.004h5.152a2.498 2.498 0 0 0 2.48-2.379c0-1.375-1.082-2.457-2.412-2.457H45.42a1.006 1.006 0 0 1-1.004-1.004c0-.552.451-1.003 1.004-1.003h7.847c1.375-.034 2.435-1.139 2.412-2.47a2.499 2.499 0 0 0-2.491-2.367h-2.165a1.006 1.006 0 0 1-1.003-1.003c0-.553.45-1.004 1.003-1.004Zm-20.79 18.693a8.112 8.112 0 0 0-2.39-5.761 8.075 8.075 0 0 0-5.75-2.379c-4.487 0-8.14 3.653-8.14 8.14s3.653 8.14 8.14 8.14c4.488 0 8.14-3.653 8.14-8.14Zm-10.462-3.134 1.015-2.706h.011c.135-.372.44-.676.812-.812.721-.27 1.522.09 1.792.812l1.015 2.706 2.886.124a1.392 1.392 0 0 1 1.263.958 1.402 1.402 0 0 1-.462 1.522l-2.255 1.804.767 2.785c.1.383.045.8-.18 1.138a1.397 1.397 0 0 1-1.929.395l-2.413-1.59-2.412 1.59a1.416 1.416 0 0 1-.767.225c-.124 0-.248-.01-.372-.045a1.404 1.404 0 0 1-.845-.654 1.344 1.344 0 0 1-.136-1.06l.767-2.784-2.255-1.804a1.425 1.425 0 0 1-.519-1.026 1.397 1.397 0 0 1 1.33-1.454l2.887-.124Zm4.465 6.122-.44-1.579.011-.011a1.386 1.386 0 0 1 .474-1.454l1.285-1.026-1.646-.068a1.393 1.393 0 0 1-1.24-.902l-.575-1.544-.575 1.544c-.192.519-.688.88-1.24.902l-1.646.068 1.285 1.026c.44.35.62.913.473 1.454l-.44 1.59 1.376-.902a1.364 1.364 0 0 1 1.533 0l1.365.902Z" fill="currentColor"/>
</svg>
