<svg xmlns="http://www.w3.org/2000/svg" viewBox="0 0 64 64" fill="none">
  <path d="M28.614 59.616H9.21a.957.957 0 0 1-.957-.957V28.78a.956.956 0 1 1 1.914 0v28.922h18.446a.957.957 0 0 1 0 1.914ZM54.79 59.616H35.387a.956.956 0 1 1 0-1.914h18.447V28.607a.956.956 0 1 1 1.914 0V58.66a.958.958 0 0 1-.958.957Z" fill="currentColor"/>
  <path d="M60.33 34.152a3.222 3.222 0 0 1-2.293-.949L32.581 7.747 5.91 33.253c-1.252 1.197-3.387 1.15-4.584-.103a3.247 3.247 0 0 1 .102-4.585L30.391.87C31.624-.31 33.722-.285 34.925.92l27.697 27.697c.613.612.95 1.426.95 2.293a3.22 3.22 0 0 1-.95 2.293 3.226 3.226 0 0 1-2.292.95ZM32.596 5.453a.95.95 0 0 1 .676.28L59.39 31.85c.502.501 1.375.501 1.879 0 .251-.25.39-.585.39-.94s-.138-.689-.39-.94L33.572 2.272c-.495-.495-1.353-.505-1.857-.02L2.75 29.947a1.331 1.331 0 0 0-.042 1.88c.491.514 1.366.533 1.879.042L31.935 5.718a.949.949 0 0 1 .661-.265Z" fill="currentColor"/>
  <path d="M9.213 23.4a.957.957 0 0 1-.957-.958V7.995c0-.529.428-.957.957-.957h6.602c.528 0 .957.428.957.957v8.13c0 .53-.428.96-.957.96a.953.953 0 0 1-.957-.952v-7.18H10.17v13.49a.957.957 0 0 1-.957.956ZM9.213 29.733a.953.953 0 0 1-.957-.953v-.009a.956.956 0 1 1 1.914 0 .96.96 0 0 1-.957.962ZM32 51.374a6.225 6.225 0 0 1-6.219-6.218A6.225 6.225 0 0 1 32 38.936a6.226 6.226 0 0 1 6.22 6.22 6.226 6.226 0 0 1-6.22 6.218Zm0-10.524a4.31 4.31 0 0 0-4.306 4.306A4.31 4.31 0 0 0 32 49.46a4.31 4.31 0 0 0 4.305-4.305A4.309 4.309 0 0 0 32 40.85Z" fill="currentColor"/>
  <path d="M32 64a.952.952 0 0 1-.734-.343c-.427-.51-10.457-12.57-10.457-18.502 0-6.17 5.02-11.19 11.191-11.19 6.171 0 11.191 5.02 11.191 11.19 0 5.931-10.03 17.992-10.457 18.502A.96.96 0 0 1 32 64Zm0-28.122c-5.116 0-9.278 4.162-9.278 9.277 0 4.006 6.134 12.467 9.277 16.377 3.143-3.91 9.277-12.37 9.277-16.377 0-5.115-4.16-9.277-9.277-9.277Z" fill="currentColor"/>
</svg>
