<svg xmlns="http://www.w3.org/2000/svg" viewBox="0 0 64 64" fill="none">
  <path fill-rule="evenodd" clip-rule="evenodd" d="M61.786 18.624v.082c.01.086.01.173 0 .259V44.81a1.034 1.034 0 0 1-.641.951L38.73 55.066a1.033 1.033 0 0 1-.351.072 1.034 1.034 0 0 1-.352-.072L15.615 45.76a1.034 1.034 0 0 1-.64-.95v-4.322H5.441a1.034 1.034 0 0 1 0-2.068h9.532v-3.535h-4.021a1.034 1.034 0 1 1 0-2.068h4.021v-3.536H3.24v-.134a1.034 1.034 0 0 1 0-2.068h11.858v-8.27a1.025 1.025 0 0 1 0-.259v-.082c.023-.058.05-.113.083-.166l.062-.083.124-.134.072-.062.135-.062h.052l22.402-9.025c.25-.1.527-.1.776 0l22.454 9.18h.052l.134.062.073.062.124.134.062.083c.032.053.06.108.083.166Zm-14.877-4.187-8.498-3.402-19.674 7.899 8.84 3.68 19.332-8.177Zm-29.867 29.68 20.304 8.457V28.91L24.94 23.741l-7.898-3.267v6.74h2.067a1.034 1.034 0 0 1 0 2.068h-2.067v3.526h9.821a1.034 1.034 0 0 1 0 2.067h-9.821v3.536h4.29a1.034 1.034 0 1 1 0 2.068h-4.29v3.639Zm13.212-20.376 8.167 3.422 7.32-3.05 12.333-5.169-8.467-3.411-19.353 8.208Zm9.19 5.17v23.663l20.346-8.456-.051-23.665-14.474 6.038-5.82 2.42Zm9.247 16.999a1.789 1.789 0 0 0-1.648-1.648 1.789 1.789 0 0 0 0 3.567 1.788 1.788 0 0 0 1.648-1.92Zm-4.363 1.53a1.789 1.789 0 0 0-1.647-1.648 1.789 1.789 0 0 0 0 3.567 1.789 1.789 0 0 0 1.647-1.919Z" fill="currentColor"/>
</svg>
