<svg xmlns="http://www.w3.org/2000/svg" viewBox="0 0 64 64" fill="none">
  <path fill-rule="evenodd" clip-rule="evenodd" d="m56.403 15.892-10.941-4.68a1.143 1.143 0 0 0-.92 0l-10.93 4.68a1.167 1.167 0 0 0-.705 1.068v6.25c0 8.43 3.12 13.356 11.518 18.196.353.203.802.203 1.154 0 8.398-4.83 11.518-9.755 11.518-18.195v-6.25c0-.471-.278-.888-.705-1.07h.01Zm-1.624 7.319c0 7.372-2.5 11.485-9.574 15.716l-.203.129-.203-.129c-7.062-4.241-9.562-8.355-9.562-15.716v-5.482l9.776-4.188 9.776 4.188v5.482h-.01Zm0 17.18c0-.63.523-1.154 1.164-1.154v-.01c.641 0 1.165.513 1.165 1.154v10.94a2.73 2.73 0 0 1-2.725 2.725H10.641a2.73 2.73 0 0 1-2.724-2.724V23.2a2.73 2.73 0 0 1 2.724-2.725h17.18c.642 0 1.165.524 1.165 1.165s-.523 1.165-1.164 1.165H10.235v7.051h17.587c.31 0 .598.118.822.342.225.225.342.513.342.823 0 .31-.117.598-.342.823a1.147 1.147 0 0 1-.822.341H10.235v19.542h44.544V40.392Zm-40.612.01c0-.64.524-1.164 1.165-1.164h6.25c.641 0 1.165.524 1.165 1.165s-.524 1.164-1.165 1.164h-6.25a1.167 1.167 0 0 1-1.165-1.164Zm26.38-16.763c.3.053.566.235.737.491v.011l2.244 3.355 5.257-6.57a1.178 1.178 0 0 1 1.634-.183c.492.406.577 1.133.171 1.635l-6.25 7.81c-.214.278-.545.439-.951.439a1.175 1.175 0 0 1-.919-.524l-3.12-4.69c-.17-.257-.235-.567-.17-.866.053-.299.234-.566.49-.737.193-.128.417-.192.642-.192.085 0 .16.01.235.02Z" fill="currentColor"/>
</svg>
