<svg xmlns="http://www.w3.org/2000/svg" viewBox="0 0 44 44" fill="none">
  <path fill-rule="evenodd" clip-rule="evenodd" d="M21.945 38.553c0-.758.616-1.374 1.375-1.374h-.001c8.37 0 15.178-6.81 15.178-15.18 0-8.369-6.809-15.178-15.178-15.178-6.976 0-12.852 4.737-14.62 11.158h.712a1.375 1.375 0 0 1 .972 2.348L7.739 22.97a1.39 1.39 0 0 1-.973.402 1.39 1.39 0 0 1-.972-.403L3.15 20.328a1.375 1.375 0 0 1 .972-2.348h1.741C7.695 10.026 14.82 4.071 23.32 4.071c9.886 0 17.929 8.043 17.929 17.929S33.205 39.928 23.32 39.928a1.376 1.376 0 0 1-1.375-1.374Zm-9.054-4.85a1.273 1.273 0 1 1-2.547 0 1.273 1.273 0 0 1 2.547 0Zm2.613 2.942a1.273 1.273 0 1 0 2.331 1.023 1.273 1.273 0 0 0-2.331-1.023Zm-8.789-8.169a1.272 1.272 0 1 1 2.37-.926 1.272 1.272 0 0 1-2.37.926Z" fill="currentColor"/>
</svg>
