<svg id="eQaI4PUr5YM1" xmlns="http://www.w3.org/2000/svg" xmlns:xlink="http://www.w3.org/1999/xlink" viewBox="0 0 44 44" shape-rendering="geometricPrecision" text-rendering="geometricPrecision"><path d="M22.037,17.28c2.981,0,5.834,2.192,7.719,4.47.326.394.324.965,0,1.358-.821139.989993-1.758942,1.877095-2.793,2.642-3.346,2.436-6.514,2.43-9.853,0-1.033707-.764968-1.971171-1.652067-2.792-2.642-.325633-.394104-.325633-.963896,0-1.358c1.883-2.276,4.737-4.47,7.719-4.47Zm3.432,5.149c-.001653-1.894918-1.537083-3.430795-3.432-3.433-1.895308.001654-3.431346,1.537692-3.433,3.433.002205,1.894917,1.538082,3.430347,3.433,3.432c1.894527-.002204,3.429796-1.537473,3.432-3.432Zm-.98,0c0,1.354202-1.097798,2.452-2.452,2.452s-2.452-1.097798-2.452-2.452s1.097798-2.452,2.452-2.452s2.452,1.097798,2.452,2.452Z" transform="matrix(2.758167 0 0 2.758167-38.744309-39.431071)" clip-rule="evenodd" fill-rule="evenodd"/></svg>
