<svg id="eQaI4PUr5YM1" xmlns="http://www.w3.org/2000/svg" viewBox="0 0 44 44" shape-rendering="geometricPrecision" text-rendering="geometricPrecision">
  <path d="M22.037 17.28c2.981 0 5.834 2.192 7.719 4.47.326.394.324.965 0 1.358a15.96 15.96 0 0 1-2.793 2.642c-3.346 2.436-6.514 2.43-9.853 0a15.96 15.96 0 0 1-2.792-2.642 1.066 1.066 0 0 1 0-1.358c1.883-2.276 4.737-4.47 7.719-4.47Zm3.432 5.149a3.436 3.436 0 0 0-3.432-3.433 3.436 3.436 0 0 0-3.433 3.433 3.436 3.436 0 0 0 3.433 3.432 3.436 3.436 0 0 0 3.432-3.432Zm-.98 0a2.452 2.452 0 1 1-4.904 0 2.452 2.452 0 0 1 4.904 0Z" transform="matrix(2.75817 0 0 2.75817 -38.744 -39.431)" clip-rule="evenodd" fill-rule="evenodd" fill="currentColor" />
</svg>
