<svg xmlns="http://www.w3.org/2000/svg" viewBox="0 0 44 44" fill="none">
  <g clip-path="url(#clip0_2155_121691)">
    <path d="M43.885 16.877a2.335 2.335 0 0 0-2.011-1.606l-12.702-1.153-5.02-11.752a2.34 2.34 0 0 0-4.302 0l-5.02 11.752L2.126 15.27a2.342 2.342 0 0 0-1.329 4.092l9.602 8.419L7.568 40.25a2.338 2.338 0 0 0 3.48 2.529L22 36.229l10.95 6.55c.804.48 1.814.436 2.573-.114a2.338 2.338 0 0 0 .91-2.415l-2.831-12.468 9.6-8.42a2.341 2.341 0 0 0 .683-2.485Z" fill="currentColor"/>
  </g>
  <defs>
    <clipPath id="clip0_2155_121691">
      <path fill="#fff" d="M0 0h44v44H0z"/>
    </clipPath>
  </defs>
</svg>
