<svg xmlns="http://www.w3.org/2000/svg" viewBox="0 0 48 48" fill="none">
  <path d="M42.927 12.571a15.443 15.443 0 0 1-4.356 1.193 7.628 7.628 0 0 0 3.335-4.188 15.69 15.69 0 0 1-4.82 1.822 7.6 7.6 0 0 0-9.115-1.504 7.575 7.575 0 0 0-3.335 3.552 7.552 7.552 0 0 0-.476 4.845 21.526 21.526 0 0 1-8.658-2.281 21.477 21.477 0 0 1-6.974-5.604A7.403 7.403 0 0 0 7.5 14.213a7.554 7.554 0 0 0 3.374 6.298 7.574 7.574 0 0 1-3.435-.947v.084a7.56 7.56 0 0 0 1.714 4.796 7.592 7.592 0 0 0 4.37 2.628 7.72 7.72 0 0 1-3.41.13 7.594 7.594 0 0 0 2.705 3.761 7.622 7.622 0 0 0 4.392 1.495 15.234 15.234 0 0 1-9.408 3.247A16.14 16.14 0 0 1 6 35.603a21.612 21.612 0 0 0 11.65 3.396 21.464 21.464 0 0 0 15.299-6.252 21.371 21.371 0 0 0 4.675-7 21.332 21.332 0 0 0 1.606-8.256c0-.322 0-.647-.023-.969A15.296 15.296 0 0 0 43 12.604l-.073-.033Z" fill="currentColor"/>
</svg>
