<svg xmlns="http://www.w3.org/2000/svg" viewBox="0 0 44 44" fill="none">
  <path fill-rule="evenodd" clip-rule="evenodd" d="m34.671 30.742 8.539 8.575h-.03c.547.517.82 1.247.82 2.007-.03 1.49-1.276 2.676-2.796 2.676-.729 0-1.428-.274-1.944-.79l-8.6-8.515c-3.19 2.372-7.14 3.801-11.425 3.801C8.63 38.496 0 29.86 0 19.248 0 8.636 8.66 0 19.265 0S38.5 8.605 38.5 19.248c0 4.318-1.428 8.271-3.829 11.494ZM5.5 19.248c0 7.572 6.138 13.744 13.735 13.744l-.03.03c7.596 0 13.765-6.142 13.765-13.743 0-7.602-6.139-13.775-13.735-13.775-7.566 0-13.735 6.142-13.735 13.744Zm12.45-6.441h3.858v5.142h5.142v3.858h-5.142v5.143h-3.859v-5.142h-5.142v-3.859h5.142v-5.142Z" fill="currentColor"/>
</svg>
