<svg xmlns="http://www.w3.org/2000/svg" viewBox="0 0 40 40" fill="none">
  <g clip-path="url(#clip0_2219_112570)">
    <path fill-rule="evenodd" clip-rule="evenodd" d="M33.537 14.146a3.576 3.576 0 0 1 2.068-.658c2 0 3.628 1.647 3.628 3.672v10.648C39.233 34.532 33.845 40 27.222 40a11.963 11.963 0 0 1-8.837-3.934L6.019 23.568a2.275 2.275 0 0 1-.008-3.177 4.958 4.958 0 0 1 3.555-1.506h.013c1.334 0 2.59.524 3.537 1.476l2.094 1.97V3.673C15.21 1.648 16.837 0 18.838 0c2 0 3.628 1.648 3.628 3.673v6.85a3.573 3.573 0 0 1 1.961-.585c1.491 0 2.774.916 3.332 2.221.62-.5 1.404-.801 2.257-.801 1.7 0 3.129 1.189 3.52 2.788Zm4.03 7.274v-4.26c0-1.106-.88-2.006-1.962-2.006-1.081 0-1.961.9-1.961 2.006v2.13a.833.833 0 0 1-1.667 0v-4.26c0-1.105-.88-2.005-1.96-2.005-1.082 0-1.962.9-1.962 2.006v2.84a.833.833 0 0 1-1.667 0v-4.26c0-1.106-.88-2.006-1.961-2.006s-1.961.9-1.961 2.006v2.84a.833.833 0 0 1-1.667 0V3.673c0-1.106-.88-2.006-1.961-2.006-1.082 0-1.961.9-1.961 2.006v20.586a.833.833 0 0 1-1.405.607l-3.508-3.3a3.304 3.304 0 0 0-2.385-1.014H9.57a3.305 3.305 0 0 0-2.368 1.005.6.6 0 0 0 .002.839l12.368 12.5.01.01.007.008a10.295 10.295 0 0 0 7.633 3.42c5.704 0 10.345-4.722 10.345-10.525v-6.39Zm-30.6-5.32a.833.833 0 0 1 0 1.667H1.6a.837.837 0 0 1-.082-.005c-.009 0-.017-.002-.025-.003a.493.493 0 0 0-.024-.003l-.032-.006a.527.527 0 0 1-.03-.007c-.004 0-.008-.002-.011-.003l-.01-.002a.476.476 0 0 1-.059-.018c-.003 0-.006-.002-.008-.003a5.388 5.388 0 0 0-.012-.004l-.026-.01a.442.442 0 0 1-.027-.012l-.009-.004-.01-.005a.605.605 0 0 1-.028-.014l-.023-.013-.01-.006a.592.592 0 0 0-.01-.007l-.027-.016-.024-.017a.484.484 0 0 0-.01-.008l-.01-.007c-.007-.006-.015-.01-.022-.017a.83.83 0 0 1-.05-.045l-.004-.004-.006-.005a.095.095 0 0 1-.006-.007L1 17.511a.817.817 0 0 1-.063-.073l-.007-.01a.577.577 0 0 0-.023-.032l-.019-.03-.005-.01a.545.545 0 0 0-.018-.03l-.015-.03-.004-.01-.005-.01-.01-.024c-.005-.01-.009-.02-.012-.031l-.003-.008a2.343 2.343 0 0 0-.013-.038l-.008-.03a.83.83 0 0 0-.003-.01c0-.004-.002-.007-.003-.011l-.006-.028c-.003-.012-.004-.024-.006-.037l-.001-.01a.543.543 0 0 0-.002-.011l-.003-.022a.846.846 0 0 1-.004-.083v-5.366a.833.833 0 0 1 1.666 0v3.354l8.655-8.654H7.733a.833.833 0 0 1 0-1.667H13.1c.46 0 .833.373.833.833V10.8a.833.833 0 0 1-1.666 0V7.445L3.612 16.1h3.355Z" fill="currentColor"/>
  </g>
  <defs>
    <clipPath id="clip0_2219_112570">
      <path fill="#fff" d="M0 0h40v40H0z"/>
    </clipPath>
  </defs>
</svg>
